<svg width="113" height="73" viewBox="0 0 113 73" fill="none" xmlns="http://www.w3.org/2000/svg">
<path d="M78.8772 31.9408C72.116 19.2812 56.2197 14.5319 43.3717 21.3331C30.5237 28.1343 25.5893 43.9104 32.3505 56.57C39.1116 69.2296 55.008 73.9789 67.856 67.1777C80.704 60.3765 85.6384 44.6004 78.8772 31.9408Z" fill="#FDD951"/>
<path fill-rule="evenodd" clip-rule="evenodd" d="M25.7216 42.2556C25.7219 42.2552 25.7215 42.255 25.7214 42.2543C25.7206 42.2526 25.7203 42.2512 25.7196 42.2496C25.686 42.1555 25.7267 42.051 25.8148 42.0039C27.7402 40.7478 28.5757 39.0852 28.0535 36.7332C28.0278 36.649 28.0598 36.5579 28.1323 36.508C28.137 36.5045 28.1425 36.5015 28.1474 36.4986C28.1493 36.4975 28.151 36.4968 28.1529 36.4956C28.1565 36.4938 28.1608 36.4918 28.1644 36.4899C28.1675 36.4889 28.1708 36.4875 28.1741 36.486C28.1768 36.4847 28.1795 36.4841 28.1822 36.4829C28.1866 36.4815 28.1915 36.4805 28.1959 36.4792C28.1976 36.4785 28.199 36.4782 28.2003 36.4779C28.2913 36.4566 28.3847 36.5002 28.4258 36.5836C29.6804 38.6378 31.4325 39.2518 33.6868 38.8156C33.7797 38.7877 33.879 38.8304 33.923 38.9168C33.9253 38.9207 33.9275 38.9245 33.9291 38.9285C33.9304 38.9312 33.931 38.9339 33.9325 38.9361C33.9332 38.9378 33.9335 38.9392 33.9339 38.9412C33.9678 39.0349 33.9275 39.1397 33.8395 39.1868C31.9139 40.4439 31.0782 42.1052 31.6 44.4577C31.6261 44.5414 31.5941 44.6325 31.5222 44.6822C31.5215 44.6824 31.5213 44.6828 31.5203 44.6834C31.5159 44.6865 31.511 44.6893 31.5062 44.6922C31.5043 44.6933 31.5026 44.694 31.5007 44.6952C31.4971 44.697 31.4932 44.6993 31.4892 44.7009C31.4861 44.7019 31.4828 44.7034 31.4795 44.7048C31.4771 44.7057 31.4741 44.7067 31.4717 44.7075C31.467 44.7093 31.4621 44.7103 31.4577 44.7116C31.456 44.7123 31.4546 44.7126 31.4532 44.7129C31.447 44.7143 31.4407 44.7156 31.4343 44.7163C31.3494 44.7283 31.2665 44.6842 31.2278 44.6072C29.9729 42.5535 28.221 41.9401 25.9665 42.3757C25.8732 42.4032 25.7739 42.3605 25.7299 42.2741C25.7276 42.2703 25.7261 42.2663 25.7245 42.2623C25.7234 42.2603 25.7225 42.258 25.7216 42.2556Z" fill="#FFEC4A"/>
<path fill-rule="evenodd" clip-rule="evenodd" d="M28.5144 41.4316C28.7623 41.6285 29.1235 41.588 29.3213 41.3413L28.8725 40.9848C29.3213 41.3413 29.3212 41.3414 29.3213 41.3413L29.322 41.3404L29.323 41.3392L29.3255 41.336L29.3332 41.3262C29.3394 41.3182 29.3478 41.3073 29.3581 41.2937C29.3786 41.2665 29.4068 41.2282 29.4403 41.1803C29.5072 41.0848 29.5966 40.9494 29.6895 40.7858C29.8698 40.4681 30.0875 40.002 30.1477 39.4957C30.185 39.1822 29.96 38.898 29.6451 38.8609C29.3302 38.8237 29.0447 39.0478 29.0074 39.3613C28.9731 39.6495 28.8383 39.9616 28.6897 40.2234C28.6181 40.3495 28.549 40.4542 28.4984 40.5264C28.4733 40.5624 28.453 40.5898 28.4398 40.6073C28.4332 40.6161 28.4284 40.6223 28.4256 40.6259L28.423 40.6292L28.4235 40.6286C28.2259 40.8754 28.2666 41.2347 28.5144 41.4316ZM28.423 40.6292C28.4229 40.6293 28.423 40.6292 28.423 40.6292V40.6292Z" fill="#FFFDE7"/>
<path d="M73.5857 34.7418C68.3203 24.8827 56.0054 21.1497 46.0798 26.4038C36.1542 31.658 32.3764 43.9098 37.6419 53.7689C42.9074 63.6281 55.2223 67.3611 65.1479 62.1069C75.0735 56.8527 78.8512 44.601 73.5857 34.7418Z" fill="#FA9701"/>
<path d="M64.5585 59.076C72.9322 54.0668 75.7157 43.3708 70.7756 35.1856C65.8356 27.0004 55.0428 24.4257 46.6692 29.4348C38.2956 34.4439 35.5121 45.14 40.4521 53.3252C45.3921 61.5104 56.1849 64.0851 64.5585 59.076Z" fill="#FDD951"/>
<path fill-rule="evenodd" clip-rule="evenodd" d="M53.8718 51.9822C54.8159 51.1693 54.9193 49.7484 54.1029 48.8085L48.4536 42.3051C47.6371 41.3652 46.2099 41.2622 45.2658 42.075C44.3217 42.8879 44.2183 44.3087 45.0347 45.2487L50.684 51.7521C51.5005 52.692 52.9277 52.795 53.8718 51.9822Z" fill="#F8A003"/>
<path fill-rule="evenodd" clip-rule="evenodd" d="M50.7371 51.8111C51.5863 52.7218 53.0163 52.7748 53.931 51.9293L66.2643 40.5308C67.179 39.6854 67.2322 38.2617 66.383 37.351C65.5338 36.4403 64.1038 36.3874 63.1891 37.2328L50.8558 48.6313C49.9411 49.4768 49.8879 50.9004 50.7371 51.8111Z" fill="#F8A003"/>
<path fill-rule="evenodd" clip-rule="evenodd" d="M34.9737 34.3973C35.4061 34.5757 35.9019 34.3715 36.0811 33.941L35.2983 33.6179C36.0811 33.941 36.0812 33.9408 36.0811 33.941L36.0809 33.9417L36.0829 33.9368L36.0941 33.911C36.1047 33.8869 36.1216 33.849 36.1448 33.7986C36.1914 33.6978 36.2635 33.5473 36.3618 33.3569C36.5587 32.9758 36.8599 32.4374 37.2715 31.8205C38.0977 30.5821 39.3518 29.0529 41.0768 27.8376C41.4588 27.5684 41.5494 27.0418 41.279 26.6615C41.0086 26.2811 40.4797 26.1909 40.0976 26.4601C38.1501 27.8323 36.7597 29.5375 35.8596 30.8868C35.408 31.5637 35.0755 32.1574 34.8546 32.585C34.744 32.7989 34.6611 32.9718 34.6049 33.0934C34.5768 33.1542 34.5554 33.2023 34.5405 33.2362C34.5331 33.2532 34.5273 33.2667 34.5231 33.2765L34.518 33.2884L34.5164 33.2923L34.5156 33.2942C34.5155 33.2945 34.5154 33.2947 35.2983 33.6179L34.5156 33.2942C34.3363 33.7247 34.5413 34.2188 34.9737 34.3973ZM36.0809 33.9417C36.0807 33.942 36.0808 33.9418 36.0809 33.9417V33.9417Z" fill="white"/>
<path fill-rule="evenodd" clip-rule="evenodd" d="M65.2388 23.2055C65.0824 23.6447 65.3133 24.127 65.7544 24.2827L66.0376 23.4874C65.7544 24.2827 65.7546 24.2827 65.7544 24.2827L65.7537 24.2824L65.7587 24.2842L65.7851 24.294C65.8099 24.3032 65.8488 24.318 65.9006 24.3385C66.0041 24.3796 66.1589 24.4433 66.355 24.5312C66.7475 24.707 67.3034 24.9782 67.9437 25.3551C69.2291 26.1117 70.8287 27.2786 72.138 28.9299C72.428 29.2957 72.9609 29.3582 73.3283 29.0694C73.6957 28.7807 73.7585 28.2501 73.4685 27.8844C71.9902 26.0199 70.2069 24.7269 68.8064 23.9025C68.1037 23.489 67.4909 23.1895 67.0504 22.9922C66.83 22.8935 66.6522 22.8201 66.5273 22.7706C66.4649 22.7459 66.4156 22.7271 66.3807 22.7141C66.3633 22.7076 66.3495 22.7025 66.3394 22.6988L66.3272 22.6944L66.3232 22.693L66.3212 22.6923C66.321 22.6922 66.3207 22.6921 66.0376 23.4874L66.3212 22.6923C65.8801 22.5366 65.3952 22.7663 65.2388 23.2055ZM65.7537 24.2824C65.7534 24.2823 65.7536 24.2824 65.7537 24.2824V24.2824Z" fill="white"/>
<path fill-rule="evenodd" clip-rule="evenodd" d="M44.0338 25.6994C43.6999 26.0221 43.1664 26.0165 42.8395 25.6858C42.5112 25.3536 42.5154 24.8194 42.849 24.4926L43.4435 25.0939C42.849 24.4926 42.8493 24.4923 42.8495 24.4921L42.85 24.4916L42.8511 24.4905L42.8536 24.4882L42.8596 24.4824L42.8763 24.4666C42.8896 24.4542 42.907 24.4383 42.9288 24.419C42.9724 24.3804 43.0333 24.3284 43.1128 24.2649C43.2717 24.138 43.5044 23.9656 43.8203 23.7632C44.4525 23.3583 45.4153 22.835 46.7825 22.3175C47.22 22.1519 47.7095 22.3708 47.8758 22.8064C48.0422 23.2419 47.8223 23.7293 47.3848 23.8949C46.1262 24.3713 45.269 24.8418 44.7375 25.1823C44.4716 25.3527 44.2867 25.4908 44.1733 25.5813C44.1166 25.6266 44.0778 25.66 44.0556 25.6796C44.0446 25.6894 44.0376 25.6958 44.0348 25.6985C44.0343 25.6989 44.034 25.6992 44.0338 25.6994Z" fill="white"/>
<path fill-rule="evenodd" clip-rule="evenodd" d="M74.2519 31.8989C73.9278 31.5665 73.9334 31.0354 74.2656 30.7099C74.5992 30.3831 75.1358 30.3873 75.4641 30.7194L74.8601 31.3113C75.4641 30.7194 75.4643 30.7197 75.4646 30.7199L75.4651 30.7204L75.4661 30.7215L75.4685 30.7239L75.4744 30.73L75.4902 30.7466C75.5026 30.7598 75.5186 30.7772 75.538 30.7989C75.5768 30.8422 75.629 30.9029 75.6928 30.982C75.8202 31.1402 75.9934 31.3719 76.1967 31.6864C76.6034 32.3158 77.129 33.2744 77.6488 34.6355C77.8151 35.071 77.5953 35.5584 77.1578 35.724C76.7203 35.8896 76.2308 35.6707 76.0644 35.2351C75.5859 33.9821 75.1133 33.1287 74.7713 32.5995C74.6002 32.3348 74.4615 32.1507 74.3705 32.0379C74.3251 31.9814 74.2915 31.9428 74.2718 31.9207C74.2619 31.9097 74.2555 31.9028 74.2528 31.8999C74.2524 31.8995 74.2521 31.8992 74.2519 31.8989Z" fill="white"/>
<path fill-rule="evenodd" clip-rule="evenodd" d="M47.5326 66.0066C47.7042 65.5731 47.4904 65.0831 47.0549 64.9122C43.7707 63.6235 41.0539 61.2316 39.1396 59.1205C38.1873 58.0703 37.4452 57.1025 36.9423 56.3989C36.6911 56.0474 36.5002 55.7627 36.3731 55.5677C36.3097 55.4702 36.2622 55.3952 36.2312 55.3455C36.2157 55.3207 36.2043 55.3023 36.1971 55.2905L36.1894 55.2779L36.188 55.2757C35.9477 54.876 35.4273 54.7455 35.0257 54.9847C34.624 55.2239 34.4931 55.742 34.7334 56.1419L35.4607 55.7088C34.7334 56.1419 34.7333 56.1417 34.7334 56.1419L34.7351 56.1447L34.7384 56.1502L34.7499 56.169C34.7596 56.1849 34.7736 56.2076 34.7918 56.2368C34.8282 56.295 34.8814 56.379 34.951 56.4858C35.09 56.6993 35.2946 57.0042 35.5613 57.3772C36.0941 58.1227 36.8768 59.1434 37.8814 60.2513C39.8809 62.4564 42.8057 65.0587 46.4334 66.4822C46.8688 66.653 47.361 66.4401 47.5326 66.0066Z" fill="white"/>
<path fill-rule="evenodd" clip-rule="evenodd" d="M77.8959 50.7256C77.4547 50.57 76.9703 50.7999 76.814 51.2391C75.6277 54.572 73.4188 57.4675 71.474 59.5481C70.506 60.5837 69.6137 61.4066 68.9652 61.9692C68.6411 62.2503 68.3785 62.4659 68.1985 62.61C68.1085 62.682 68.0393 62.7361 67.9933 62.7716C67.9704 62.7894 67.9532 62.8024 67.9423 62.8108L67.9305 62.8197L67.9283 62.8213C67.5542 63.1012 67.4784 63.6301 67.7594 64.0027C68.0404 64.3753 68.5716 64.4506 68.9459 64.1709L68.4371 63.4961C68.9459 64.1709 68.9457 64.171 68.9459 64.1709L68.9485 64.169L68.9534 64.1652L68.9705 64.1523C68.9851 64.1413 69.0058 64.1254 69.0325 64.1048C69.0858 64.0636 69.1628 64.0034 69.2607 63.925C69.4565 63.7682 69.7363 63.5384 70.0786 63.2415C70.7627 62.6481 71.6991 61.7844 72.7149 60.6977C74.7376 58.5336 77.1165 55.4415 78.4116 51.8027C78.568 51.3635 78.3371 50.8812 77.8959 50.7256Z" fill="white"/>
<path fill-rule="evenodd" clip-rule="evenodd" d="M88.4916 47.8343C88.6065 48.125 88.8377 48.3551 89.1298 48.4693L89.3004 48.5361C90.256 48.91 90.256 50.2564 89.3002 50.6302L89.1301 50.6967C88.838 50.811 88.6067 51.0411 88.4918 51.3319L88.4239 51.5037C88.0481 52.4544 86.6968 52.4545 86.3209 51.5038L86.2528 51.3315C86.1378 51.0408 85.9067 50.8108 85.6146 50.6965L85.444 50.6298C84.4883 50.2559 84.4884 48.9094 85.4441 48.5356L85.6142 48.4691C85.9064 48.3549 86.1376 48.1248 86.2526 47.834L86.3205 47.6622C86.6962 46.7115 88.0476 46.7114 88.4235 47.662L88.4916 47.8343Z" fill="#AFDDFF"/>
<path fill-rule="evenodd" clip-rule="evenodd" d="M54.992 2.60821C55.105 2.894 55.3323 3.12019 55.6194 3.23249C56.5588 3.59988 56.5586 4.92336 55.6193 5.29081C55.3322 5.40312 55.1049 5.62934 54.9919 5.9151C54.6222 6.85021 53.2926 6.85038 52.9229 5.91524C52.81 5.62945 52.5827 5.40325 52.2955 5.29095C51.3562 4.92357 51.3564 3.60009 52.2957 3.23263C52.5828 3.12032 52.8101 2.8941 52.9231 2.60834C53.2928 1.67323 54.6224 1.67307 54.992 2.60821Z" fill="#F9C253"/>
<path fill-rule="evenodd" clip-rule="evenodd" d="M8.78888 47.3139C9.03356 47.501 9.34541 47.5783 9.64962 47.5273C10.6448 47.3606 11.3294 48.4951 10.7143 49.2917C10.5263 49.5352 10.4485 49.8457 10.4995 50.1486C10.6664 51.1397 9.52674 51.8216 8.72612 51.2096C8.48144 51.0225 8.16959 50.9452 7.86538 50.9961C6.87017 51.1629 6.18564 50.0283 6.80068 49.2317C6.98866 48.9883 7.06649 48.6778 7.0155 48.3749C6.84864 47.3838 7.98826 46.7019 8.78888 47.3139Z" fill="#F9C253"/>
<path fill-rule="evenodd" clip-rule="evenodd" d="M26.3491 11.698C26.5315 11.7926 26.7452 11.8075 26.939 11.7389C27.573 11.5148 28.1544 12.1807 27.8432 12.7746C27.7481 12.9561 27.7331 13.169 27.8018 13.3619C28.0266 13.9934 27.3577 14.5725 26.7609 14.2629C26.5785 14.1683 26.3648 14.1535 26.1709 14.222C25.5369 14.4462 24.9556 13.7802 25.2668 13.1863C25.3619 13.0048 25.3769 12.792 25.3082 12.599C25.0834 11.9675 25.7523 11.3885 26.3491 11.698Z" fill="#AFDDFF"/>
<path fill-rule="evenodd" clip-rule="evenodd" d="M98.1041 39.823C98.2865 39.9176 98.5002 39.9325 98.694 39.8639C99.328 39.6398 99.9094 40.3057 99.5982 40.8996C99.5031 41.0811 99.4881 41.294 99.5568 41.4869C99.7816 42.1184 99.1127 42.6975 98.5159 42.3879C98.3335 42.2933 98.1198 42.2785 97.926 42.347C97.2919 42.5712 96.7106 41.9052 97.0218 41.3113C97.1169 41.1298 97.1319 40.917 97.0632 40.724C96.8384 40.0925 97.5073 39.5135 98.1041 39.823Z" fill="#AFDDFF"/>
<path fill-rule="evenodd" clip-rule="evenodd" d="M14.9725 25.918C13.5683 25.918 12.43 27.0512 12.43 28.4492C12.43 29.8472 13.5683 30.9805 14.9725 30.9805C16.3767 30.9805 17.515 29.8472 17.515 28.4492C17.515 27.0512 16.3767 25.918 14.9725 25.918ZM14.9725 27.268C14.3172 27.268 13.786 27.7968 13.786 28.4492C13.786 29.1016 14.3172 29.6305 14.9725 29.6305C15.6278 29.6305 16.159 29.1016 16.159 28.4492C16.159 27.7968 15.6278 27.268 14.9725 27.268Z" fill="#AFDDFF"/>
<path fill-rule="evenodd" clip-rule="evenodd" d="M79.9475 8.48047C78.5433 8.48047 77.405 9.61375 77.405 11.0117C77.405 12.4097 78.5433 13.543 79.9475 13.543C81.3517 13.543 82.49 12.4097 82.49 11.0117C82.49 9.61375 81.3517 8.48047 79.9475 8.48047ZM79.9475 9.83047C79.2922 9.83047 78.761 10.3593 78.761 11.0117C78.761 11.6641 79.2922 12.193 79.9475 12.193C80.6028 12.193 81.134 11.6641 81.134 11.0117C81.134 10.3593 80.6028 9.83047 79.9475 9.83047Z" fill="#F9C253"/>
<path fill-rule="evenodd" clip-rule="evenodd" d="M102.547 66.418C101.143 66.418 100.005 67.5512 100.005 68.9492C100.005 70.3472 101.143 71.4805 102.547 71.4805C103.952 71.4805 105.09 70.3472 105.09 68.9492C105.09 67.5512 103.952 66.418 102.547 66.418ZM102.547 67.768C101.892 67.768 101.361 68.2968 101.361 68.9492C101.361 69.6016 101.892 70.1305 102.547 70.1305C103.203 70.1305 103.734 69.6016 103.734 68.9492C103.734 68.2968 103.203 67.768 102.547 67.768Z" fill="#F9C253"/>
<path fill-rule="evenodd" clip-rule="evenodd" d="M102.198 22.6156C102.182 22.8197 102.252 23.0214 102.391 23.1722C102.846 23.6657 102.457 24.4586 101.786 24.4055C101.581 24.3893 101.379 24.4587 101.227 24.5971C100.731 25.0498 99.9345 24.663 99.9875 23.9952C100.004 23.791 99.9339 23.5894 99.7948 23.4385C99.3399 22.9451 99.7285 22.1521 100.399 22.2053C100.604 22.2215 100.807 22.1521 100.958 22.0137C101.454 21.561 102.251 21.9477 102.198 22.6156Z" fill="#FECE5F"/>
<path fill-rule="evenodd" clip-rule="evenodd" d="M26.8508 67.1843C26.8261 67.4958 26.9326 67.8035 27.1449 68.0337L27.6033 68.5309C28.2977 69.2839 27.7049 70.4942 26.6813 70.4131L26.0052 70.3596C25.6924 70.3348 25.3833 70.4406 25.152 70.6518L24.6503 71.1097C23.8939 71.8001 22.6793 71.2103 22.7602 70.1918L22.8137 69.5167C22.8385 69.2052 22.732 68.8974 22.5197 68.6672L22.0613 68.1701C21.3669 67.417 21.9597 66.2068 22.9833 66.2878L23.6594 66.3414C23.9722 66.3662 24.2813 66.2603 24.5126 66.0492L25.0143 65.5913C25.7707 64.9009 26.9853 65.4907 26.9044 66.5091L26.8508 67.1843Z" fill="#FECE5F"/>
<path fill-rule="evenodd" clip-rule="evenodd" d="M5.45491 15.33C5.71173 14.9404 6.23714 14.8319 6.62845 15.0875L19.6524 23.5971C20.0437 23.8528 20.1528 24.3759 19.8959 24.7654C19.6391 25.155 19.1137 25.2636 18.7224 25.0079L5.69845 16.4983C5.30713 16.2427 5.1981 15.7196 5.45491 15.33Z" fill="#FA9701"/>
<path fill-rule="evenodd" clip-rule="evenodd" d="M2.68147 8.58C2.93829 8.19041 3.4637 8.08186 3.85502 8.33754L16.879 16.8471C17.2703 17.1028 17.3793 17.6259 17.1225 18.0154C16.8657 18.405 16.3403 18.5136 15.949 18.2579L2.92501 9.74835C2.5337 9.49267 2.42466 8.96958 2.68147 8.58Z" fill="white"/>
<path fill-rule="evenodd" clip-rule="evenodd" d="M10.0264 8.58C10.2833 8.19041 10.8087 8.08186 11.2 8.33754L24.2239 16.8471C24.6153 17.1028 24.7243 17.6259 24.4675 18.0154C24.2107 18.405 23.6852 18.5136 23.2939 18.2579L10.27 9.74835C9.87867 9.49267 9.76963 8.96958 10.0264 8.58Z" fill="#FDD951"/>
<path fill-rule="evenodd" clip-rule="evenodd" d="M101.895 15.33C101.638 14.9404 101.113 14.8319 100.722 15.0875L87.6976 23.5971C87.3063 23.8528 87.1972 24.3759 87.454 24.7654C87.7108 25.155 88.2363 25.2636 88.6276 25.0079L101.652 16.4983C102.043 16.2427 102.152 15.7196 101.895 15.33Z" fill="#FA9701"/>
<path fill-rule="evenodd" clip-rule="evenodd" d="M104.669 8.58C104.412 8.19041 103.886 8.08186 103.495 8.33754L90.4711 16.8471C90.0798 17.1028 89.9707 17.6259 90.2275 18.0154C90.4843 18.405 91.0098 18.5136 91.4011 18.2579L104.425 9.74835C104.816 9.49267 104.925 8.96958 104.669 8.58Z" fill="white"/>
<path fill-rule="evenodd" clip-rule="evenodd" d="M97.3235 8.58C97.0667 8.19041 96.5413 8.08186 96.15 8.33754L83.126 16.8471C82.7347 17.1028 82.6257 17.6259 82.8825 18.0154C83.1393 18.405 83.6647 18.5136 84.056 18.2579L97.08 9.74835C97.4713 9.49267 97.5803 8.96958 97.3235 8.58Z" fill="#FDD951"/>
</svg>
