<svg width="63" height="50" viewBox="0 0 63 50" fill="none" xmlns="http://www.w3.org/2000/svg">
<g clip-path="url(#clip0_5_16487)">
<g style="mix-blend-mode:multiply" opacity="0.5">
<path d="M61.3431 38.6654L42.7027 49.4979C41.422 50.2417 39.1852 50.148 37.7063 49.2895L2.01164 28.5465C0.532771 27.6867 0.372081 26.3861 1.65274 25.6423L2.44427 25.1815L20.2918 14.8098C21.5725 14.066 23.8106 14.1593 25.2882 15.0182L60.514 35.4875L60.9846 35.7617C62.4635 36.6214 62.6242 37.922 61.3435 38.6658L61.3431 38.6654Z" fill="#173D7A"/>
</g>
<path d="M62.1695 29.4334L60.9056 30.6144L60.8844 30.7095L60.5141 30.4936L25.2883 10.0247C23.8107 9.16626 21.5725 9.0725 20.2919 9.81632L2.44434 20.1881L2.14106 20.3645L2.09117 20.1396L0.82729 18.9586C0.25958 20.5773 0.50547 21.9103 0.969879 22.5635C1.16324 22.9181 1.50934 23.2611 2.01171 23.553L37.7064 44.296C39.1852 45.1545 41.4221 45.2483 42.7032 44.5044L61.3436 33.6719C61.6574 33.4898 61.8839 33.2734 62.0265 33.0387C62.4913 32.3856 62.7377 31.0521 62.17 29.4334H62.1695Z" fill="#3D6DAB"/>
<path d="M61.3429 30.9935L42.7025 41.826C41.4219 42.5698 39.185 42.4761 37.7062 41.6176L2.01152 20.8746C0.532649 20.0148 0.371959 18.7142 1.65262 17.9704L2.44414 17.5096L20.2917 7.13788C21.5723 6.39406 23.8105 6.48737 25.2881 7.34628L60.5139 27.8156L60.9845 28.0897C62.4633 28.9495 62.624 30.2501 61.3434 30.9939L61.3429 30.9935Z" fill="#D4EAFF"/>
<path d="M2.88304 20.368C1.88712 19.789 1.72598 18.9408 2.52413 18.4773L21.1636 7.64526C21.9618 7.18138 23.4212 7.27513 24.4176 7.85366L60.1127 28.5971C61.1086 29.1761 61.2697 30.0243 60.4716 30.4878L41.8321 41.3198C41.0339 41.7837 39.5745 41.69 38.5781 41.1115L2.88304 20.368Z" fill="#163C7A"/>
<g style="mix-blend-mode:multiply" opacity="0.5">
<path d="M37.7148 29.861L19.632 19.3644L22.7093 17.576L40.7922 28.0726L37.7148 29.861Z" fill="#173D7A"/>
</g>
<path d="M4.9645 18.8654L10.5074 15.6444C10.9356 15.3955 11.5832 15.3684 11.954 15.5839L12.0542 15.6421C12.4251 15.8576 12.3787 16.234 11.9505 16.4828L6.40761 19.7038C5.9794 19.9527 5.33179 19.9798 4.96097 19.7643L4.86076 19.7061C4.48994 19.4905 4.53629 19.1142 4.9645 18.8654Z" fill="white"/>
<path d="M18.8961 10.7692L21.5409 9.23225C21.9691 8.98342 22.6167 8.95632 22.9875 9.17182L23.0877 9.23003C23.4586 9.44553 23.4122 9.82189 22.984 10.0707L20.3393 11.6077C19.911 11.8565 19.2634 11.8836 18.8926 11.6681L18.7924 11.6099C18.4216 11.3944 18.4679 11.018 18.8961 10.7692Z" fill="white"/>
<mask id="mask0_5_16487" style="mask-type:luminance" maskUnits="userSpaceOnUse" x="19" y="0" width="21" height="31">
<path d="M39.1401 30.0497L19.7263 18.7675V0L39.1401 11.2817V30.0497Z" fill="white"/>
</mask>
<g mask="url(#mask0_5_16487)">
<path d="M37.5345 37.3321V11.856L20.9089 2.19434V27.6709L37.5345 37.3321Z" fill="#FF2D9B"/>
<path d="M34.8875 12.0445V10.3174L36.7451 11.3967V13.1238C36.7451 13.7201 36.3292 13.9618 35.8163 13.6637C35.3033 13.3655 34.8875 12.6408 34.8875 12.0445Z" fill="#F6EAFF"/>
<path d="M30.5684 9.53491V7.80777L32.426 8.88707V10.6142C32.426 11.2105 32.0101 11.4522 31.4972 11.1541C30.9842 10.8559 30.5684 10.1312 30.5684 9.53491Z" fill="#F6EAFF"/>
<path d="M26.2488 7.02499V5.29785L28.1064 6.37715V8.10429C28.1064 8.70059 27.6906 8.94231 27.1776 8.64416C26.6646 8.34601 26.2488 7.62129 26.2488 7.02499Z" fill="#F6EAFF"/>
<path d="M21.9304 4.51523V2.78809L23.7881 3.86738V5.59452C23.7881 6.19082 23.3722 6.43254 22.8592 6.13439C22.3463 5.83624 21.9304 5.11153 21.9304 4.51523Z" fill="#F6EAFF"/>
<path d="M23.7881 27.617V29.3441L21.9304 28.2648V26.5377C21.9304 25.9414 22.3463 25.6997 22.8592 25.9978C23.3722 26.296 23.7881 27.0207 23.7881 27.617Z" fill="#F6EAFF"/>
<path d="M28.1064 30.1268V31.8539L26.2488 30.7746V29.0475C26.2488 28.4512 26.6646 28.2094 27.1776 28.5076C27.6906 28.8057 28.1064 29.5305 28.1064 30.1268Z" fill="#F6EAFF"/>
<path d="M21.5583 9.40013C21.5583 8.47769 22.2042 8.10222 22.9979 8.56344L35.676 15.931C36.4698 16.3922 37.1156 17.5182 37.1156 18.4406V30.2613C37.1156 31.1838 36.4698 31.5593 35.676 31.098L25.2948 25.0653V24.6334C25.2948 24.1286 24.9417 23.5127 24.5073 23.2604C24.0729 23.008 23.7202 23.2133 23.7202 23.718V24.1499L22.9979 23.7305C22.2042 23.2692 21.5583 22.1433 21.5583 21.2208V9.40013Z" fill="#B80084"/>
<path d="M24.5076 22.8286C25.1477 23.2005 25.6669 24.1052 25.6669 24.849L35.6769 30.6658C36.2666 31.0089 36.7452 30.7307 36.7452 30.0451V18.2244C36.7452 17.5388 36.2671 16.7052 35.6769 16.3621L22.9987 8.99458C22.409 8.65155 21.9304 8.92971 21.9304 9.61532V21.436C21.9304 22.1216 22.4085 22.9552 22.9987 23.2983L23.3493 23.5018C23.3493 22.7579 23.868 22.4562 24.5081 22.8281L24.5076 22.8286Z" fill="white"/>
<path d="M26.1734 18.1819L24.4222 17.1639C24.4222 17.65 24.4787 18.0068 24.5917 18.2348C24.7052 18.4632 24.8473 18.6271 25.0186 18.7262C25.3042 18.8924 25.4848 18.7738 25.5603 18.3707L26.1461 18.8004C25.9924 19.474 25.6106 19.6335 24.9992 19.2781C24.6248 19.0608 24.3264 18.7315 24.1035 18.2908C23.8805 17.85 23.7693 17.3288 23.7693 16.7276C23.7693 16.1095 23.8814 15.6972 24.1066 15.4905C24.3317 15.2839 24.6323 15.2897 25.0084 15.5083C25.272 15.6616 25.494 15.8749 25.6742 16.1482C25.8543 16.4214 25.981 16.7169 26.0547 17.0342C26.1284 17.3514 26.1681 17.734 26.1743 18.1819H26.1734ZM25.5205 17.2999C25.5205 16.6654 25.3426 16.2446 24.9868 16.038C24.6535 15.8442 24.4703 16.0553 24.4381 16.6707L25.5205 17.2999Z" fill="#FF2D9B"/>
<path d="M29.2225 17.8646L28.6305 17.7593C28.5612 17.4612 28.4694 17.2177 28.356 17.0288C28.2425 16.8395 28.0876 16.6885 27.8911 16.5743C27.7092 16.4685 27.5684 16.4494 27.4695 16.517C27.3702 16.5845 27.3208 16.6991 27.3208 16.8613C27.3208 17.0404 27.3764 17.215 27.4881 17.3856C27.5993 17.5567 27.8218 17.8126 28.1551 18.1535C28.439 18.4449 28.6579 18.692 28.8115 18.8951C28.9647 19.0981 29.0892 19.323 29.1841 19.5696C29.279 19.8162 29.3267 20.0654 29.3267 20.3174C29.3267 20.7262 29.2027 21.0021 28.9541 21.1452C28.7056 21.2883 28.3573 21.2296 27.9097 20.9697C27.1367 20.5204 26.6586 19.7886 26.4745 18.7737L27.0943 18.9306C27.2024 19.5922 27.4845 20.0557 27.9406 20.3209C28.1635 20.4502 28.3326 20.4818 28.4482 20.4147C28.5634 20.3476 28.6217 20.2156 28.6217 20.0183C28.6217 19.8735 28.582 19.7157 28.5021 19.546C28.4222 19.3763 28.224 19.1288 27.907 18.8044C27.5719 18.4623 27.33 18.197 27.1817 18.0086C27.0334 17.8202 26.9071 17.5958 26.8029 17.3359C26.6983 17.0755 26.6462 16.8182 26.6462 16.5641C26.6462 16.1766 26.7623 15.9184 26.9945 15.7896C27.2267 15.6603 27.5349 15.7078 27.9194 15.9313C28.6005 16.3268 29.0345 16.9715 29.223 17.8651L29.2225 17.8646Z" fill="#FF2D9B"/>
<path d="M29.9404 17.1946L30.6335 17.5976V22.4635L29.9404 22.0605V17.1946Z" fill="#FF2D9B"/>
<path d="M31.4215 18.0557L32.4497 18.6533L33.2849 22.6466L34.1418 19.6367L35.1266 20.209V25.0749L34.4764 24.6972V20.544L33.4813 24.1187L32.9776 23.8259L32.0011 19.1017V23.2585L31.4215 22.9217V18.0557Z" fill="#FF2D9B"/>
</g>
<path d="M20.9082 2.19371L22.8789 1.05176L39.5345 10.7308L37.5338 11.8554L20.9082 2.19371Z" fill="#FF2D9B"/>
<path d="M37.5342 11.8561L39.5348 10.7314V27.9744L37.5342 29.1372V11.8561Z" fill="#B80084"/>
<path d="M36.7439 11.3965L34.8867 10.3176L35.8941 9.73242L37.7513 10.8113L36.7439 11.3965Z" fill="#F6EAFF"/>
<path d="M32.4296 8.88898L30.5724 7.81012L31.5798 7.22449L33.437 8.30378L32.4296 8.88898Z" fill="#F6EAFF"/>
<path d="M28.1149 6.38113L26.2577 5.30228L27.2651 4.71664L29.1223 5.7955L28.1149 6.38113Z" fill="#F6EAFF"/>
<path d="M23.7996 3.87347L21.9424 2.79462L22.9498 2.20898L24.807 3.28784L23.7996 3.87347Z" fill="#F6EAFF"/>
<path d="M37.3404 11.8958C37.3148 11.8958 37.2887 11.8892 37.2649 11.8754L21.0026 2.42477C20.9302 2.38255 20.9055 2.28969 20.9474 2.21682C20.9894 2.14394 21.0816 2.11906 21.154 2.16127L37.4163 11.6114C37.4887 11.6537 37.5134 11.7465 37.4715 11.8194C37.4437 11.8683 37.3925 11.8958 37.3404 11.8958Z" fill="#F6EAFF"/>
<mask id="mask1_5_16487" style="mask-type:luminance" maskUnits="userSpaceOnUse" x="20" y="19" width="20" height="19">
<path d="M20.9082 19.4434L37.5338 29.1366L39.5345 27.9738V36.1731L37.5338 37.336L20.9082 27.6703V19.4434Z" fill="white"/>
</mask>
<g mask="url(#mask1_5_16487)">
<path d="M37.5338 37.3311V11.855L20.9082 2.19336V27.6699L37.5338 37.3311Z" fill="#FF2D9B"/>
<path d="M23.7873 27.616V29.3432L21.9297 28.2639V26.5367C21.9297 25.9404 22.3455 25.6987 22.8585 25.9968C23.3715 26.295 23.7873 27.0197 23.7873 27.616Z" fill="#F6EAFF"/>
<path d="M28.1057 30.1258V31.8529L26.248 30.7736V29.0465C26.248 28.4502 26.6639 28.2085 27.1769 28.5066C27.6898 28.8048 28.1057 29.5295 28.1057 30.1258Z" fill="#F6EAFF"/>
<path d="M32.4253 32.6357V34.3628L30.5676 33.2835V31.5564C30.5676 30.9601 30.9835 30.7184 31.4964 31.0165C32.0094 31.3147 32.4253 32.0394 32.4253 32.6357Z" fill="#F6EAFF"/>
<path d="M36.7444 35.1453V36.8724L34.8867 35.7932V34.066C34.8867 33.4697 35.3026 33.228 35.8155 33.5261C36.3285 33.8243 36.7444 34.549 36.7444 35.1453Z" fill="#F6EAFF"/>
<path d="M21.5576 9.39916C21.5576 8.47671 22.2035 8.10124 22.9972 8.56247L35.6753 15.93C36.469 16.3913 37.1149 17.5172 37.1149 18.4397V30.2604C37.1149 31.1828 36.469 31.5583 35.6753 31.0971L25.2941 25.0643V24.6324C25.2941 24.1276 24.9409 23.5118 24.5065 23.2594C24.0721 23.007 23.7194 23.2123 23.7194 23.7171V24.1489L22.9972 23.7295C22.2035 23.2683 21.5576 22.1423 21.5576 21.2199V9.39916Z" fill="#B80084"/>
<path d="M24.5069 22.8276C25.147 23.1995 25.6662 24.1042 25.6662 24.848L35.6761 30.6648C36.2659 31.0079 36.7444 30.7297 36.7444 30.0441V18.2234C36.7444 17.5378 36.2663 16.7042 35.6761 16.3612L22.998 8.9936C22.4082 8.65057 21.9297 8.92873 21.9297 9.61434V21.4351C21.9297 22.1207 22.4078 22.9543 22.998 23.2973L23.3485 23.5008C23.3485 22.757 23.8672 22.4553 24.5073 22.8272L24.5069 22.8276Z" fill="white"/>
<path d="M26.1727 18.1809L24.4215 17.1629C24.4215 17.649 24.478 18.0058 24.591 18.2338C24.7044 18.4622 24.8466 18.6261 25.0179 18.7252C25.3035 18.8914 25.484 18.7728 25.5595 18.3698L26.1453 18.7994C25.9917 19.4731 25.6099 19.6326 24.9984 19.2771C24.6241 19.0598 24.3257 18.7306 24.1027 18.2898C23.8798 17.849 23.7686 17.3278 23.7686 16.7266C23.7686 16.1085 23.8807 15.6962 24.1058 15.4896C24.331 15.2829 24.6316 15.2887 25.0077 15.5073C25.2713 15.6606 25.4933 15.8739 25.6734 16.1472C25.8535 16.4205 25.9802 16.7159 26.054 17.0332C26.1277 17.3505 26.1674 17.733 26.1736 18.1809H26.1727ZM25.5198 17.2989C25.5198 16.6644 25.3419 16.2436 24.9861 16.037C24.6528 15.8433 24.4696 16.0543 24.4374 16.6697L25.5198 17.2989Z" fill="#FF2D9B"/>
<path d="M29.2218 17.8637L28.6298 17.7584C28.5605 17.4602 28.4687 17.2167 28.3552 17.0279C28.2418 16.8386 28.0868 16.6875 27.8904 16.5733C27.7085 16.4675 27.5677 16.4484 27.4688 16.516C27.3695 16.5835 27.32 16.6982 27.32 16.8603C27.32 17.0394 27.3756 17.214 27.4873 17.3847C27.5986 17.5557 27.8211 17.8117 28.1544 18.1525C28.4382 18.444 28.6572 18.691 28.8108 18.8941C28.964 19.0971 29.0885 19.322 29.1834 19.5686C29.2783 19.8152 29.326 20.0645 29.326 20.3164C29.326 20.7252 29.2019 21.0011 28.9534 21.1442C28.7049 21.2873 28.3566 21.2286 27.9089 20.9687C27.1359 20.5195 26.6578 19.7876 26.4738 18.7728L27.0936 18.9296C27.2017 19.5912 27.4838 20.0547 27.9398 20.32C28.1628 20.4493 28.3318 20.4808 28.4475 20.4137C28.5627 20.3466 28.621 20.2146 28.621 20.0174C28.621 19.8725 28.5813 19.7148 28.5014 19.545C28.4215 19.3753 28.2232 19.1278 27.9063 18.8034C27.5712 18.4613 27.3293 18.196 27.181 18.0076C27.0326 17.8192 26.9064 17.5948 26.8022 17.3349C26.6976 17.0745 26.6455 16.8172 26.6455 16.5631C26.6455 16.1756 26.7616 15.9175 26.9938 15.7886C27.226 15.6593 27.5341 15.7068 27.9186 15.9303C28.5998 16.3258 29.0337 16.9705 29.2222 17.8641L29.2218 17.8637Z" fill="#FF2D9B"/>
<path d="M29.9397 17.1936L30.6328 17.5966V22.4626L29.9397 22.0595V17.1936Z" fill="#FF2D9B"/>
<path d="M31.4208 18.0547L32.4489 18.6524L33.2842 22.6456L34.141 19.6357L35.1259 20.208V25.0739L34.4756 24.6963V20.543L33.4806 24.1177L32.9769 23.8249L32.0004 19.1007V23.2575L31.4208 22.9207V18.0547Z" fill="#FF2D9B"/>
<path d="M39.5348 27.9736V36.173L37.5342 37.3358V29.1365L39.5348 27.9736Z" fill="#B80084"/>
</g>
<path opacity="0.5" d="M39.0094 30.1154C39.272 30.2683 39.272 30.5158 39.0094 30.6686C38.7467 30.8215 38.3203 30.8215 38.0576 30.6686C37.7949 30.5158 37.7949 30.2683 38.0576 30.1154C38.3203 29.9626 38.7467 29.9626 39.0094 30.1154Z" fill="white"/>
<path d="M40.596 29.1937C40.8587 29.3466 40.8587 29.5941 40.596 29.7469C40.3334 29.8998 39.9069 29.8998 39.6443 29.7469C39.3816 29.5941 39.3816 29.3466 39.6443 29.1937C39.9069 29.0409 40.3334 29.0409 40.596 29.1937Z" fill="white"/>
<path opacity="0.5" d="M42.1821 28.2719C42.4448 28.4247 42.4448 28.6722 42.1821 28.8251C41.9194 28.9779 41.493 28.9779 41.2303 28.8251C40.9677 28.6722 40.9677 28.4247 41.2303 28.2719C41.493 28.119 41.9194 28.119 42.1821 28.2719Z" fill="white"/>
<path d="M45.1155 31.2201L35.6525 36.7197C35.4538 36.8352 35.1069 36.8205 34.8773 36.6872C34.6477 36.5539 34.623 36.3522 34.8217 36.2367L44.2847 30.7371C44.4833 30.6216 44.8303 30.6362 45.0599 30.7695C45.2894 30.9028 45.3142 31.1046 45.1155 31.2201Z" fill="white"/>
<path d="M53.7923 27.724L44.3293 33.2236C44.1306 33.3391 43.7836 33.3244 43.5541 33.1911C43.3245 33.0578 43.2998 32.8561 43.4984 32.7406L52.9614 27.241C53.1601 27.1255 53.5071 27.1401 53.7366 27.2735C53.9662 27.4068 53.9909 27.6085 53.7923 27.724Z" fill="white"/>
<path d="M46.8725 33.2902L38.3118 38.265C38.1131 38.3806 37.7662 38.3659 37.5366 38.2326C37.307 38.0993 37.2823 37.8976 37.481 37.782L46.0417 32.8072C46.2403 32.6917 46.5873 32.7064 46.8168 32.8397C47.0464 32.973 47.0711 33.1747 46.8725 33.2902Z" fill="white"/>
<path d="M51.1081 30.8282L48.6413 32.2616C48.4325 32.3829 48.0683 32.3678 47.8272 32.2279C47.5862 32.0879 47.5602 31.8759 47.769 31.7546L50.2358 30.3212C50.4446 30.1999 50.8088 30.215 51.0498 30.355C51.2909 30.4949 51.3169 30.7069 51.1081 30.8282Z" fill="white"/>
<path d="M47.4419 29.9173L52.3575 27.0606C52.5663 26.9393 52.5398 26.7274 52.2992 26.5874C52.0582 26.4474 51.694 26.4323 51.4852 26.5536L46.5696 29.4103C46.3608 29.5316 46.3873 29.7435 46.6279 29.8835C46.8685 30.0235 47.2331 30.0386 47.4419 29.9173Z" fill="white"/>
<path d="M41.8078 34.713L37.0212 37.495C36.8124 37.6163 36.4482 37.6012 36.2071 37.4612C35.9661 37.3212 35.94 37.1093 36.1488 36.988L40.9355 34.206C41.1443 34.0847 41.5085 34.0998 41.7496 34.2397C41.9906 34.3797 42.0167 34.5917 41.8078 34.713Z" fill="white"/>
</g>
<defs>
<clipPath id="clip0_5_16487">
<rect width="62" height="50" fill="white" transform="translate(0.498047)"/>
</clipPath>
</defs>
</svg>
