<svg width="25" height="16" viewBox="0 0 25 16" fill="none" xmlns="http://www.w3.org/2000/svg">
<rect x="0.478516" width="24" height="16" rx="4" fill="#108EE9"/>
<path fill-rule="evenodd" clip-rule="evenodd" d="M6.07849 7.99998C6.07849 4.46542 8.94394 1.59998 12.4785 1.59998C16.013 1.59998 18.8785 4.46542 18.8785 7.99998C18.8785 11.5347 16.013 14.4 12.4785 14.4C8.94394 14.4 6.07849 11.5347 6.07849 7.99998ZM10.7833 6.56397C10.6386 6.58537 10.4943 6.59712 10.3506 6.59712C10.1574 6.59712 9.9651 6.57608 9.77315 6.52995C9.46918 6.45698 9.19418 6.32386 8.9354 6.15268C8.90173 6.1304 8.83978 6.10813 8.81675 6.12356C8.78656 6.14373 8.76981 6.20161 8.76911 6.24371C8.76492 6.48698 8.76702 6.73042 8.76702 6.97387C8.76702 7.27361 8.76719 7.57318 8.76719 7.87293C8.76719 8.51644 8.76719 9.15978 8.76649 9.80347C8.76614 9.93554 8.81204 10.0431 8.92493 10.1134C9.39799 10.4086 9.91554 10.538 10.4725 10.5143C10.9065 10.4959 11.3256 10.3995 11.736 10.2665C12.1925 10.1183 12.6452 9.95835 13.1004 9.80593C13.4986 9.67263 13.9036 9.56389 14.3231 9.52407C14.9352 9.46672 15.5125 9.57722 16.0408 9.90362C16.1631 9.97904 16.2146 9.94887 16.2146 9.80891C16.2148 9.21415 16.2148 8.6194 16.2148 8.02464V7.87293C16.2148 7.33132 16.2141 6.79005 16.2153 6.24897C16.2157 6.09427 16.149 5.9822 16.0213 5.8959C15.3298 5.42761 14.5752 5.36938 13.7944 5.58739C13.3386 5.71455 12.8945 5.88538 12.4504 6.05043C11.9043 6.25353 11.3656 6.47733 10.7833 6.56397Z" fill="white"/>
</svg>
