<svg width="43" height="42" viewBox="0 0 33 32" fill="none" xmlns="http://www.w3.org/2000/svg">
<g clip-path="url(#clip0_5_15766)">
<path d="M15.973 27.9416H13.2635C13.2635 27.3833 13.2678 26.8301 13.2623 26.2768C13.2593 25.9465 13.0914 25.7336 12.7808 25.6859C12.4828 25.6401 12.2745 25.7952 12.1758 26.0878C12.1433 26.1845 12.1499 26.2988 12.1493 26.4049C12.1469 26.9029 12.1481 27.4015 12.1481 27.9284H9.43863C9.43863 27.3858 9.46873 26.8307 9.42238 26.2819C9.40613 26.0859 9.24239 25.8354 9.07745 25.7424C8.94261 25.6664 8.66932 25.7324 8.52605 25.8372C8.40626 25.9252 8.33944 26.1588 8.33161 26.3315C8.30693 26.8527 8.32258 27.3758 8.32258 28.0006C7.58818 27.951 6.85438 27.9849 6.15971 27.8298C5.50718 27.6841 5.14118 27.1146 5.0858 26.4181C5.03825 25.8184 5.07617 25.2118 5.07617 24.5599C5.62216 24.5599 6.15309 24.5681 6.68343 24.5568C7.02354 24.5499 7.25108 24.3044 7.25108 23.9784C7.25108 23.6519 7.02474 23.417 6.68463 23.3976C6.57086 23.3913 6.45709 23.3957 6.34331 23.3957C5.93458 23.3957 5.52644 23.3957 5.09303 23.3957V20.5685C5.62095 20.5685 6.15189 20.5767 6.68222 20.5654C7.02294 20.5585 7.25048 20.3148 7.25168 19.9883C7.25289 19.6617 7.02595 19.4256 6.68644 19.4055C6.57266 19.3986 6.45889 19.4036 6.34512 19.4036C5.93638 19.4036 5.52765 19.4036 5.09363 19.4036V16.5765C5.61975 16.5765 6.15068 16.584 6.68042 16.574C7.02173 16.5671 7.24928 16.3247 7.25168 15.9987C7.25409 15.6722 7.02715 15.4354 6.68824 15.4141C6.59734 15.4084 6.50645 15.4122 6.41495 15.4122C5.98334 15.4122 5.55173 15.4122 5.09423 15.4122V12.5851C5.61854 12.5851 6.14888 12.5926 6.67921 12.5826C7.02113 12.5756 7.24867 12.3345 7.25168 12.0086C7.25469 11.6946 7.03919 11.4541 6.72376 11.4246C6.63346 11.4164 6.54196 11.4208 6.45046 11.4208C6.00741 11.4208 5.56437 11.4208 5.09483 11.4208V8.59365C5.61734 8.59365 6.14767 8.59427 6.67741 8.59365C6.94769 8.59302 7.17283 8.458 7.21075 8.19174C7.23784 7.99833 7.15958 7.75404 7.05063 7.58826C6.982 7.48276 6.77131 7.44194 6.62263 7.43691C6.12299 7.41933 5.62276 7.43001 5.03223 7.43001C5.07376 6.67267 5.03463 5.91721 5.1779 5.20195C5.31636 4.50552 5.86354 4.11115 6.54557 4.05212C7.11985 4.00251 7.70135 4.04207 8.32258 4.04207C8.32258 4.56706 8.32138 5.07321 8.32258 5.57999C8.32439 6.05223 8.52605 6.31346 8.88242 6.31221C9.23818 6.31032 9.43683 6.04971 9.43803 5.57496C9.43984 5.07761 9.43803 4.58025 9.43803 4.0584H12.1463C12.1463 4.56581 12.1451 5.07196 12.1463 5.5781C12.1481 6.0516 12.3479 6.31221 12.7049 6.31158C13.0607 6.31158 13.2605 6.04971 13.2623 5.57622C13.2641 5.07886 13.2623 4.58151 13.2623 4.0584H15.9706C15.9706 4.56392 15.9694 5.07007 15.9706 5.57559C15.9724 6.04971 16.171 6.31032 16.5274 6.31095C16.8838 6.31095 17.0848 6.04971 17.0866 5.57748C17.0884 5.08012 17.0866 4.58213 17.0866 4.05903H19.7961C19.7961 4.60977 19.7889 5.16364 19.7985 5.71689C19.8051 6.07295 20.0375 6.31033 20.3505 6.31158C20.6629 6.31284 20.8899 6.07609 20.9097 5.72191C20.9164 5.60322 20.9115 5.48454 20.9115 5.36585C20.9115 4.93945 20.9115 4.51306 20.9115 4.05966H23.621C23.621 4.60851 23.6138 5.16176 23.6234 5.715C23.63 6.07169 23.8612 6.30907 24.1736 6.31158C24.4866 6.31409 24.7142 6.07735 24.7346 5.7238C24.7413 5.60511 24.7365 5.48642 24.7365 5.36773C24.7365 4.94134 24.7365 4.51431 24.7365 4C25.4534 4.03893 26.1643 3.99749 26.8421 4.13627C27.5127 4.2738 27.9046 4.83332 27.9684 5.54357C28.0232 6.15333 27.9799 6.77252 27.9799 7.42938C27.4778 7.42938 26.992 7.42812 26.5068 7.42938C26.0548 7.43126 25.8055 7.64289 25.8086 8.01591C25.8116 8.38704 26.0602 8.59176 26.5165 8.59365C26.9926 8.59553 27.4694 8.59365 27.969 8.59365V11.4195C27.4808 11.4195 26.9956 11.4183 26.5105 11.4195C26.0572 11.4214 25.808 11.6305 25.8092 12.0029C25.8104 12.3747 26.0596 12.5819 26.5141 12.5838C26.9908 12.5857 27.4676 12.5838 27.9684 12.5838V15.411C27.4381 15.411 26.9077 15.4034 26.3774 15.4135C26.0361 15.4204 25.8104 15.6634 25.8098 15.9906C25.8092 16.3178 26.0355 16.5526 26.375 16.5727C26.4888 16.5796 26.6026 16.5746 26.7163 16.5746C27.1251 16.5746 27.5338 16.5746 27.9678 16.5746V19.4017C27.4411 19.4017 26.9108 19.3942 26.3804 19.4043C26.0379 19.4112 25.8116 19.6517 25.8098 19.9782C25.8074 20.306 26.0331 20.5422 26.372 20.5635C26.4629 20.5692 26.5538 20.5654 26.6453 20.5654C27.0769 20.5654 27.5085 20.5654 27.9666 20.5654V23.3925C27.4435 23.3925 26.9138 23.3925 26.3834 23.3925C26.1132 23.3925 25.8874 23.5269 25.8501 23.7932C25.823 23.9866 25.8964 24.2372 26.0102 24.396C26.0897 24.5072 26.3112 24.5436 26.4713 24.5499C26.9595 24.5687 27.4489 24.5568 28.0292 24.5568C27.9871 25.3135 28.025 26.0677 27.8823 26.783C27.7433 27.4794 27.1967 27.8744 26.5147 27.9334C25.9404 27.9837 25.3589 27.9435 24.7377 27.9435C24.7377 27.4185 24.7395 26.9123 24.7377 26.4062C24.7358 25.934 24.5348 25.6727 24.1778 25.674C23.8215 25.6752 23.624 25.9346 23.6222 26.41C23.6204 26.9073 23.6222 27.4047 23.6222 27.9272H20.9127C20.9127 27.3739 20.9206 26.82 20.9097 26.2668C20.9031 25.9114 20.669 25.6746 20.3559 25.674C20.0423 25.674 19.8178 25.9088 19.7985 26.2643C19.7925 26.383 19.7967 26.5016 19.7967 26.6203C19.7967 27.0467 19.7967 27.4731 19.7967 27.9259H17.0872C17.0872 27.3764 17.0945 26.8225 17.0848 26.2693C17.0788 25.927 16.8645 25.6947 16.5677 25.674C16.2812 25.6545 16.029 25.8561 15.9814 26.1544C15.9652 26.2586 15.9718 26.3673 15.9718 26.4746C15.9712 26.9488 15.9718 27.4229 15.9718 27.9372L15.973 27.9416ZM16.4943 24.5599C18.9865 24.5599 21.4786 24.5599 23.9701 24.5599C24.5727 24.5599 24.7401 24.3866 24.7401 23.7586C24.7401 19.9117 24.7377 16.0647 24.7455 12.2177C24.7461 11.8962 24.6546 11.6557 24.4361 11.4302C23.255 10.2113 22.08 8.9855 20.9115 7.75341C20.6966 7.52672 20.4697 7.4231 20.1591 7.42436C16.472 7.43252 12.7856 7.42938 9.09852 7.43001C8.48873 7.43001 8.32258 7.59956 8.32258 8.22314C8.32258 13.4002 8.32258 18.5766 8.32258 23.7536C8.32258 24.3866 8.48692 24.5599 9.08648 24.5606C11.5558 24.5606 14.025 24.5606 16.4943 24.5606V24.5599Z" fill="#30A7BF"/>
<path d="M10.5947 9.78146H10.8873C13.6862 9.78146 16.4846 9.78304 19.2834 9.77777C19.4694 9.77777 19.6013 9.83101 19.7332 9.97018C20.5917 10.8784 21.4613 11.7751 22.3193 12.6844C22.4027 12.773 22.4795 12.9169 22.48 13.0349C22.4886 16.0249 22.4871 19.0148 22.486 22.0052C22.486 22.0627 22.479 22.1196 22.4744 22.1902H10.5947V9.78146Z" fill="#30A7BF"/>
</g>
<defs>
<clipPath id="clip0_5_15766">
<rect width="43" height="44" fill="white" transform="translate(4.625 4)"/>
</clipPath>
</defs>
</svg>
