<svg width="24" height="20" viewBox="0 0 24 20" fill="none" xmlns="http://www.w3.org/2000/svg">
<path d="M17.6903 12.4776C17.5847 13.0761 17.419 13.6435 17.1445 14.1691C16.1429 16.0871 14.5958 17.1798 12.4857 17.4102C12.3464 17.4255 12.2057 17.4313 12.0656 17.4338C11.7458 17.4393 11.524 17.2401 11.5193 16.9486C11.5146 16.6547 11.729 16.449 12.0479 16.4437C13.0647 16.4265 13.9957 16.1267 14.8125 15.5028C16.0926 14.5248 16.7694 13.2055 16.8075 11.5624C16.8315 10.5304 16.821 9.4973 16.8107 8.46482C16.785 5.91542 14.8971 3.81385 12.4332 3.58091C9.85241 3.33703 7.52435 5.27109 7.22347 7.91308C7.1994 8.13881 7.18777 8.36577 7.18863 8.59286C7.18518 9.69256 7.18723 10.7923 7.18698 11.892C7.1869 12.294 7.00734 12.4822 6.61739 12.478C6.32726 12.475 6.03268 12.4914 5.7481 12.4459C5.20153 12.3585 4.78983 11.8535 4.78399 11.2833C4.77523 10.4264 4.77354 9.56921 4.7846 8.71232C4.79288 8.0744 5.31228 7.54855 5.93147 7.52488C6.05136 7.52037 6.17153 7.52423 6.30428 7.52423C6.62482 5.81747 7.47019 4.46655 8.88441 3.51449C9.90914 2.8247 11.0444 2.51419 12.2655 2.57372C13.6193 2.63966 14.811 3.13999 15.8248 4.06892C16.8332 4.99289 17.4457 6.14997 17.6889 7.50933C17.8834 7.52314 18.0706 7.51902 18.2512 7.55247C18.7969 7.65324 19.2096 8.1462 19.2157 8.71732C19.2251 9.57427 19.2265 10.4315 19.2153 11.2883C19.2069 11.9271 18.6891 12.4521 18.0694 12.4769C17.9495 12.4817 17.8293 12.4776 17.6903 12.4776Z" fill="#CBCBCB"/>
</svg>
