<svg viewBox="-3.6 -3.6 43.20 43.20" xmlns="http://www.w3.org/2000/svg" xmlns:xlink="http://www.w3.org/1999/xlink" aria-hidden="true" role="img" class="iconify iconify--twemoji" preserveAspectRatio="xMidYMid meet" fill="#000000"><g id="SVGRepo_bgCarrier" stroke-width="0"></g><g id="SVGRepo_tracerCarrier" stroke-linecap="round" stroke-linejoin="round" stroke="#000000" stroke-width="1.584"><path fill="#DC1F26" d="M32 5H4a4 4 0 0 0-4 4v9h36V9a4 4 0 0 0-4-4z"></path><path fill="#EEE" d="M36 27a4 4 0 0 1-4 4H4a4 4 0 0 1-4-4v-9h36v9z"></path></g><g id="SVGRepo_iconCarrier"><path fill="#DC1F26" d="M32 5H4a4 4 0 0 0-4 4v9h36V9a4 4 0 0 0-4-4z"></path><path fill="#EEE" d="M36 27a4 4 0 0 1-4 4H4a4 4 0 0 1-4-4v-9h36v9z"></path></g></svg>