<svg width="37" height="36" viewBox="0 0 37 36" fill="none" xmlns="http://www.w3.org/2000/svg">
<path fill-rule="evenodd" clip-rule="evenodd" d="M27.9365 19.8525L28.122 20.0114L28.3864 20.2082C29.0207 20.6452 29.7725 20.9237 30.5849 20.9865L30.9365 21V30C30.9365 31.6569 29.5934 33 27.9365 33H21.938L21.9365 25.5C21.9365 24.7307 21.3575 24.0967 20.6115 24.0101L20.4365 24H17.4365C16.6673 24 16.0333 24.5791 15.9466 25.3251L15.9365 25.5L15.935 33H9.93652C8.27967 33 6.93652 31.6569 6.93652 30V21L7.20093 20.9924L7.51859 20.9627C8.25219 20.868 8.93041 20.5966 9.50921 20.1925L9.75104 20.0114L9.93652 19.8525L10.122 20.0114L10.3864 20.2082C11.0207 20.6452 11.7725 20.9237 12.5849 20.9865L12.9365 21L13.2009 20.9924L13.5186 20.9627C14.2522 20.868 14.9304 20.5966 15.5092 20.1925L15.751 20.0114L15.9365 19.8525L16.122 20.0114L16.3864 20.2082C17.0207 20.6452 17.7725 20.9237 18.5849 20.9865L18.9365 21L19.2009 20.9924L19.5186 20.9627C20.2522 20.868 20.9304 20.5966 21.5092 20.1925L21.751 20.0114L21.9365 19.8525L22.122 20.0114L22.3864 20.2082C23.0207 20.6452 23.7725 20.9237 24.5849 20.9865L24.9365 21L25.2009 20.9924L25.5186 20.9627C26.2522 20.868 26.9304 20.5966 27.5092 20.1925L27.751 20.0114L27.9365 19.8525ZM33.9365 16.5C33.9365 16.7259 33.9115 16.946 33.8642 17.1577L33.8021 17.3906L33.7241 17.6111C33.6038 17.9124 33.4363 18.1894 33.2307 18.4332L33.0795 18.5994C32.5879 19.1012 31.9214 19.4311 31.1786 19.4904L30.9365 19.5C29.355 19.5 28.0593 18.2762 27.9448 16.7239L27.9365 16.5L27.9299 16.7012L27.9103 16.8986L27.8663 17.1485C27.8301 17.3125 27.7805 17.4715 27.7188 17.6243L27.6171 17.8486L27.5617 17.9531C27.5043 18.0567 27.4409 18.1565 27.372 18.2521L27.2842 18.3679L27.1122 18.5655L27.0296 18.6493L26.9047 18.7642L26.8028 18.849L26.7015 18.926L26.4893 19.0674L26.2666 19.1898L26.0885 19.2706L25.9086 19.3388L25.7127 19.3987L25.556 19.4359L25.3798 19.4675L25.2012 19.4884L24.9365 19.5C23.355 19.5 22.0593 18.2762 21.9448 16.7239L21.9365 16.5L21.9299 16.7012L21.9103 16.8986L21.8663 17.1485C21.8301 17.3125 21.7805 17.4715 21.7188 17.6243L21.6171 17.8486L21.5617 17.9531C21.5043 18.0567 21.4409 18.1565 21.372 18.2521L21.2842 18.3679L21.1122 18.5655L21.0296 18.6493L20.9047 18.7642L20.8028 18.849L20.7015 18.926L20.4893 19.0674L20.2666 19.1898L20.0885 19.2706L19.9086 19.3388L19.7127 19.3987L19.556 19.4359L19.3798 19.4675L19.2012 19.4884L18.9365 19.5C17.355 19.5 16.0593 18.2762 15.9448 16.7239L15.9365 16.5L15.9299 16.7012L15.9103 16.8986L15.8663 17.1485C15.8301 17.3125 15.7805 17.4715 15.7188 17.6243L15.6171 17.8486L15.5617 17.9531C15.5043 18.0567 15.4409 18.1565 15.372 18.2521L15.2842 18.3679L15.1122 18.5655L15.0296 18.6493L14.9047 18.7642L14.8028 18.849L14.7015 18.926L14.4893 19.0674L14.2666 19.1898L14.0885 19.2706L13.9086 19.3388L13.7127 19.3987L13.556 19.4359L13.3798 19.4675L13.2012 19.4884L12.9365 19.5C11.355 19.5 10.0593 18.2762 9.94475 16.7239L9.93652 16.5L9.92989 16.7012L9.91027 16.8986L9.86625 17.1485C9.83011 17.3125 9.78054 17.4715 9.71876 17.6243L9.61708 17.8486L9.56175 17.9531C9.50429 18.0567 9.44088 18.1565 9.37199 18.2521L9.2842 18.3679L9.11222 18.5655L9.02957 18.6493L8.90474 18.7642L8.80278 18.849L8.70146 18.926L8.48926 19.0674L8.26655 19.1898L8.08846 19.2706L7.90856 19.3388L7.71265 19.3987L7.55604 19.4359L7.37984 19.4675L7.20118 19.4884L6.93652 19.5C5.35498 19.5 4.05928 18.2762 3.94475 16.7239L3.93652 16.5H33.9365ZM29.2536 7.49917C29.8214 7.49917 30.3406 7.81976 30.5949 8.32748L33.9365 15H3.93652L7.27916 8.32807C7.53345 7.8205 8.0525 7.49999 8.62021 7.49996L29.2536 7.49917ZM26.4365 3C27.2649 3 27.9365 3.67157 27.9365 4.5L27.935 6H9.93802L9.93652 4.5C9.93652 3.67157 10.6081 3 11.4365 3H26.4365Z" fill="#108EE9"/>
</svg>
