<svg width="13" height="16" viewBox="0 0 13 16" fill="none" xmlns="http://www.w3.org/2000/svg">
<path fill-rule="evenodd" clip-rule="evenodd" d="M3.5 4.60547C3.91421 4.60547 4.25 4.94125 4.25 5.35547C4.25 5.74009 3.96047 6.0571 3.58747 6.10042L3.5 6.10547H2V13.6055H11V6.10547H9.5C9.11537 6.10547 8.79837 5.81594 8.75505 5.44293L8.75 5.35547C8.75 4.97084 9.03953 4.65384 9.41253 4.61051L9.5 4.60547H11.75C12.1346 4.60547 12.4516 4.895 12.495 5.268L12.5 5.35547V14.3555C12.5 14.7401 12.2105 15.0571 11.8375 15.1004L11.75 15.1055H1.25C0.865373 15.1055 0.54837 14.8159 0.505046 14.4429L0.5 14.3555V5.35547C0.5 4.97084 0.78953 4.65384 1.16253 4.61051L1.25 4.60547H3.5ZM6.43099 0.108599L6.45874 0.106598L6.55681 0.107587L6.65637 0.121931L6.74083 0.145156L6.82102 0.177446L6.8684 0.202032L9.8975 2.09447C10.2488 2.314 10.3555 2.77671 10.136 3.12797C9.93215 3.45413 9.51861 3.5695 9.17935 3.40854L9.1025 3.36647L7.25 2.20697V9.85547C7.25 10.2697 6.91421 10.6055 6.5 10.6055C6.11537 10.6055 5.79837 10.3159 5.75505 9.94293L5.75 9.85547V2.20697L3.8975 3.36647C3.57134 3.57032 3.14907 3.49281 2.91464 3.19946L2.864 3.12797C2.66015 2.8018 2.73766 2.37953 3.031 2.1451L3.1025 2.09447L6.1316 0.202032L6.21099 0.163364L6.27984 0.138456L6.34349 0.121823L6.43099 0.108599Z" fill="white"/>
</svg>
