<svg width="17" height="17" viewBox="0 0 17 17" fill="none" xmlns="http://www.w3.org/2000/svg">
<path d="M9.35541 14.9754C10.6072 14.9754 11.8599 14.9754 13.1127 14.9754C13.4449 14.9754 13.779 14.962 14.1103 14.9354C14.4422 14.9138 14.7549 14.7725 14.9902 14.5378C15.2256 14.303 15.3675 13.9909 15.3897 13.6594C15.4135 13.3675 15.4287 13.0737 15.4287 12.7799C15.4319 10.1855 15.4319 7.59108 15.4287 4.99665C15.4287 4.7114 15.4154 4.42616 15.3916 4.14092C15.3778 3.79949 15.2361 3.47569 14.9946 3.23372C14.753 2.99174 14.4292 2.84926 14.0874 2.83451C13.5982 2.80123 13.106 2.79553 12.6148 2.79363C11.5363 2.78792 10.4587 2.79363 9.37826 2.79363C9.17552 2.79363 8.9811 2.71319 8.83774 2.57C8.69439 2.42682 8.61386 2.23262 8.61386 2.03013C8.61386 1.82764 8.69439 1.63344 8.83774 1.49026C8.9811 1.34707 9.17552 1.26663 9.37826 1.26663C10.8061 1.26663 12.234 1.26663 13.6619 1.27329C14.1267 1.24717 14.5915 1.32243 15.0242 1.49385C15.4569 1.66527 15.847 1.92873 16.1674 2.26593C16.6994 2.8763 16.977 3.66705 16.9432 4.4756C16.9547 7.41106 16.9547 10.3465 16.9432 13.282C16.9706 13.7097 16.9066 14.1384 16.7555 14.5395C16.6043 14.9406 16.3695 15.3051 16.0665 15.6086C15.7636 15.9122 15.3995 16.148 14.9984 16.3002C14.5973 16.4525 14.1683 16.5178 13.74 16.4919C10.8074 16.5033 7.87484 16.5033 4.94227 16.4919C4.44473 16.5165 3.94862 16.4204 3.49638 16.2118C3.04414 16.0031 2.64922 15.6882 2.3454 15.2939C1.92206 14.7013 1.70867 13.9846 1.73903 13.2573C1.72189 11.8054 1.7276 10.3535 1.72951 8.90161C1.7314 8.69987 1.81345 8.50715 1.9576 8.36584C2.10176 8.22453 2.29621 8.1462 2.49819 8.14809C2.70016 8.14998 2.89311 8.23194 3.03459 8.37592C3.17607 8.51991 3.25449 8.71413 3.25259 8.91587C3.25259 10.1938 3.25259 11.4707 3.25735 12.7486C3.25735 13.05 3.27163 13.3514 3.29638 13.6518C3.31701 13.9833 3.45794 14.2958 3.69277 14.5309C3.92759 14.766 4.24019 14.9074 4.57197 14.9288C5.06126 14.963 5.5534 14.9697 6.0446 14.9716C7.14598 14.9773 8.24832 14.9716 9.3497 14.9716L9.35541 14.9754Z" fill="#CBCBCB"/>
<path d="M4.78048 3.1729V5.78476C4.78335 5.88465 4.7665 5.98413 4.73089 6.07751C4.69527 6.1709 4.64159 6.25636 4.57291 6.32903C4.50422 6.40169 4.42189 6.46013 4.33059 6.50101C4.2393 6.54189 4.14084 6.56441 4.04083 6.56728C3.94082 6.57015 3.84123 6.55332 3.74773 6.51775C3.65424 6.48217 3.56867 6.42855 3.49592 6.35995C3.42317 6.29135 3.36467 6.20911 3.32374 6.11792C3.28281 6.02674 3.26027 5.92839 3.25739 5.8285C3.24787 5.01936 3.25739 4.21213 3.25739 3.40109V3.17385L3.19837 3.14057C2.89661 3.44958 2.59675 3.7605 2.29309 4.06761C2.20512 4.1658 2.09237 4.23859 1.96662 4.2784C1.84087 4.3182 1.70672 4.32356 1.57819 4.2939C1.44372 4.27056 1.31865 4.20956 1.21753 4.11799C1.11642 4.02642 1.04342 3.90805 1.00703 3.77666C0.961534 3.63992 0.956744 3.49293 0.993242 3.35352C1.02974 3.21412 1.10596 3.08829 1.21265 2.99129C1.73811 2.46328 2.26453 1.9359 2.7919 1.40915C3.00513 1.19617 3.21646 0.982241 3.43159 0.770211C3.50253 0.686074 3.5909 0.618305 3.6906 0.571579C3.7903 0.524853 3.89896 0.500282 4.00909 0.499559C4.11921 0.498836 4.22819 0.521978 4.32849 0.567391C4.4288 0.612804 4.51805 0.679406 4.59009 0.762605C5.33323 1.49726 6.07351 2.23699 6.81094 2.98179C6.95422 3.12464 7.03481 3.31849 7.03499 3.5207C7.03516 3.7229 6.95492 3.9169 6.81189 4.06C6.66887 4.20311 6.47479 4.2836 6.27235 4.28378C6.0699 4.28396 5.87568 4.20381 5.73241 4.06095C5.42684 3.76145 5.13174 3.45244 4.83188 3.14818L4.78048 3.1729Z" fill="#CBCBCB"/>
<path d="M13.542 8.91015C13.542 10.1624 13.542 11.4155 13.542 12.6677C13.5469 12.8529 13.4841 13.0335 13.3652 13.1757C13.2463 13.3179 13.0796 13.4118 12.8963 13.44C12.713 13.4681 12.5257 13.4284 12.3696 13.3284C12.2135 13.2285 12.0993 13.075 12.0484 12.8969C12.0245 12.8038 12.0139 12.7077 12.017 12.6116C12.017 10.1224 12.017 7.6329 12.017 5.14305C12.005 5.03602 12.0157 4.92767 12.0485 4.82507C12.0813 4.72247 12.1354 4.62794 12.2073 4.54766C12.2792 4.46738 12.3672 4.40316 12.4656 4.35918C12.5641 4.31521 12.6707 4.29248 12.7785 4.29248C12.8863 4.29248 12.993 4.31521 13.0914 4.35918C13.1898 4.40316 13.2778 4.46738 13.3497 4.54766C13.4216 4.62794 13.4757 4.72247 13.5085 4.82507C13.5413 4.92767 13.5521 5.03602 13.5401 5.14305C13.5401 6.39558 13.5401 7.64811 13.5401 8.90064L13.542 8.91015Z" fill="#CBCBCB"/>
<path d="M10.2265 10.4334C10.2265 11.1626 10.2265 11.8909 10.2265 12.6202C10.2265 12.822 10.1462 13.0154 10.0034 13.1581C9.86059 13.3007 9.66689 13.3809 9.46491 13.3809C9.26294 13.3809 9.06924 13.3007 8.92642 13.1581C8.7836 13.0154 8.70337 12.822 8.70337 12.6202C8.70337 11.1465 8.70337 9.67272 8.70337 8.19897C8.70337 7.99723 8.7836 7.80376 8.92642 7.66111C9.06924 7.51846 9.26294 7.43832 9.46491 7.43832C9.66689 7.43832 9.86059 7.51846 10.0034 7.66111C10.1462 7.80376 10.2265 7.99723 10.2265 8.19897C10.2284 8.9444 10.2265 9.68888 10.2265 10.4334Z" fill="#CBCBCB"/>
<path d="M5.54106 11.175C5.54106 10.6844 5.54106 10.1928 5.54106 9.70217C5.53968 9.50044 5.61858 9.30641 5.76041 9.16278C5.90225 9.01915 6.0954 8.93768 6.29737 8.9363C6.49935 8.93491 6.6936 9.01372 6.8374 9.15539C6.9812 9.29706 7.06276 9.48998 7.06415 9.69171C7.06796 10.6742 7.06796 11.6567 7.06415 12.6392C7.06554 12.8409 6.98664 13.035 6.8448 13.1786C6.70297 13.3222 6.50982 13.4037 6.30784 13.4051C6.20783 13.4058 6.10867 13.3868 6.01601 13.3492C5.92336 13.3116 5.83902 13.2561 5.76782 13.186C5.62402 13.0443 5.54245 12.8514 5.54106 12.6497C5.53821 12.1572 5.54106 11.6703 5.54106 11.175Z" fill="#CBCBCB"/>
</svg>
